<svg version="1.1" xmlns="http://www.w3.org/2000/svg" xmlns:xlink="http://www.w3.org/1999/xlink" x="0px" y="0px"
  viewBox="0 0 691.8 34.4" style="enable-background:new 0 0 691.8 34.4;" xml:space="preserve">
  <style type="text/css">
    .st0 {
      fill: none;
      stroke: #FF431F;
      stroke-width: 12;
      stroke-miterlimit: 10;
    }
  </style>
  <g>
    <polyline class="st0" points="-1,6.6 2,6.9 5,7.7 7.9,8.7 10.3,10.6 12,13.1 14.4,14.9 16.2,17.4 18.1,19.6 19.9,22.1 22.2,24.1 
		24.8,25.8 27.9,26.1 30.6,27.7 33.7,27.3 36.7,27 39.7,26.7 42.3,25.2 44.4,23.1 46.7,21.2 48.9,19.2 51.3,17.4 53.4,15.3 
		54.7,12.4 57.2,10.7 59.8,9.1 62.4,7.6 65.5,7.7 68.4,7 71.3,7.5 74.3,8 77.1,9.1 79.1,11.3 82.2,12.4 84.3,14.5 85.7,17.3 
		87.6,19.6 89.8,21.6 92.3,23.2 94.5,25.3 97.3,26.3 100.1,27.2 103.1,27.2 106.1,27.4 108.8,25.9 111.7,25.3 114.2,23.5 
		116.5,21.7 118.6,19.6 120.8,17.5 122.6,15.1 124.3,12.6 126.9,11.1 129.3,9.3 131.8,7.6 134.7,6.7 137.8,7.7 140.8,7.2 143.5,8.6 
		146.3,9.5 148.8,11 151.4,12.5 153.4,14.8 155.5,16.9 157.6,19 158.7,22.1 161.6,23.4 163.6,25.8 166.5,26.8 169.4,27.8 
		172.5,27.9 175.4,26.5 178.5,26.8 180.9,24.8 183.7,23.7 186.2,21.9 187.9,19.4 189.5,16.9 191.4,14.6 194.3,13.2 196.2,11 
		198.8,9.5 201.3,7.9 204.3,7.8 207.2,6.7 210.2,6.9 213,8.3 215.5,9.7 218.7,10.4 220.9,12.5 222.2,15.3 224.9,16.9 227,19 
		228.4,21.7 230.7,23.7 233.6,24.6 235.8,27 238.9,27 241.9,27.8 244.9,27.1 247.9,26.7 250.5,25.3 253.2,23.9 255.6,22 257.4,19.5 
		259.4,17.4 261.6,15.3 263.4,13 265.9,11.4 268,9.1 270.8,8.2 273.5,6.7 276.6,7.4 279.6,7 282.5,7.8 284.9,9.8 287.3,11.3 
		289.5,13.3 292,14.9 293.5,17.6 295.6,19.7 297.8,21.8 300.2,23.6 302.4,25.8 305.6,26 308.4,26.5 311.3,27.1 314.3,27.4 
		317.1,26.1 319.6,24.7 322,23 324.5,21.5 326.9,19.7 329.2,17.7 331.1,15.4 333.1,13.2 335.2,11.2 337.1,8.6 340.1,8 343,7.3 
		346,7.5 349,7.2 351.8,8.2 354.3,9.8 357.5,10.3 359.2,12.9 361.5,14.9 362.9,17.6 365.3,19.5 367.6,21.4 369.2,24.1 371.8,25.8 
		375,25.8 377.8,26.4 380.7,26.7 383.8,27.7 386.8,27.1 389.4,25.3 391.9,23.7 394.1,21.7 396.4,19.7 398.4,17.5 399.7,14.7 
		402.4,13.1 404.7,11.3 407.1,9.7 409.3,7.4 412.5,7.6 415.4,7.1 418.4,7.4 421.1,8.4 423.9,9.3 426.2,11.2 428.2,13.3 430.4,15.4 
		433,17 434.3,19.9 437,21.3 439.1,23.5 441.2,25.7 444.2,26.4 447.2,26.4 450.1,26.7 453,26.6 455.8,25.9 458.8,25.4 461.4,23.8 
		463.8,22 465,19 467.9,17.6 469.9,15.4 471.3,12.6 473.4,10.4 476.3,9.3 479,8.2 481.9,7.8 484.8,7.7 487.7,7.6 490.8,7.7 
		493.6,8.9 495.5,11.3 497.9,13 499.9,15.2 502.4,17 504.3,19.2 505.8,21.9 508.3,23.8 510.7,25.6 513.6,26.5 516.5,27.5 
		519.5,27.8 522.6,27.6 525.5,26.6 528.4,25.7 530.2,23 532.6,21.4 534.5,19.1 536.5,16.9 538.6,14.8 540.8,12.8 543.3,11 
		545.7,9.4 548.3,7.9 551.1,6.8 554.2,6.8 557.1,7.7 560.1,7.8 562.7,9.4 564.9,11.3 567.7,12.6 569.2,15.3 572,16.8 573.7,19.3 
		575.7,21.5 578.1,23.2 580.1,25.5 583.1,26.3 586,26.8 588.9,27.4 591.8,26.5 594.8,26.4 597.4,24.9 599.8,23.3 601.8,21.2 
		604.4,19.6 606,17 608,14.8 610.3,12.8 612.4,10.7 615,9.2 617.8,8.2 620.6,7.2 623.6,7.2 626.5,8 629.7,7.4 632.1,9.4 635,10.4 
		636.6,13.2 639.4,14.6 641.2,17 642.5,19.8 644.9,21.6 647.2,23.6 649.4,25.8 652.6,25.8 655.4,26.9 658.3,27.9 661.2,26.7 
		664.3,26.7 666.8,25.1 669.3,23.5 671.2,21.1 673.4,19.1 675.9,17.4 678.1,15.4 679.7,12.8 681.9,10.8 684.3,8.9 687.2,8.3 
		690,7.3 693,6.8 	" />
  </g>
</svg>
